<?xml version="1.0" encoding="UTF-8"?>
<!DOCTYPE svg PUBLIC "-//W3C//DTD SVG 1.1//EN" "http://www.w3.org/Graphics/SVG/1.1/DTD/svg11.dtd">
<svg xmlns="http://www.w3.org/2000/svg" version="1.1" width="160px" height="140px" style="shape-rendering:geometricPrecision; text-rendering:geometricPrecision; image-rendering:optimizeQuality; fill-rule:evenodd; clip-rule:evenodd" xmlns:xlink="http://www.w3.org/1999/xlink">
<g><path style="opacity:0.846" fill="#215069" d="M 58.5,-0.5 C 67.5,-0.5 76.5,-0.5 85.5,-0.5C 106.312,5.67516 120.479,19.0085 128,39.5C 129.337,38.2351 130.837,37.7351 132.5,38C 135.729,42.2334 138.562,46.7334 141,51.5C 142.745,52.9557 144.578,54.289 146.5,55.5C 147.76,57.3529 147.76,59.1862 146.5,61C 139.2,62.7934 131.867,64.46 124.5,66C 124,66.5 123.5,67 123,67.5C 120.551,67.0631 118.217,67.0631 116,67.5C 116.493,72.1705 117.326,76.8371 118.5,81.5C 132.212,80.8608 145.878,80.8608 159.5,81.5C 159.5,94.5 159.5,107.5 159.5,120.5C 158.856,126.292 157.856,132.125 156.5,138C 149.889,138.522 143.389,138.022 137,136.5C 133.409,136.528 130.409,134.861 128,131.5C 125.138,125.716 123.304,119.883 122.5,114C 120.431,113.676 120.098,112.842 121.5,111.5C 120.658,108.123 119.158,105.123 117,102.5C 114.318,105.35 111.484,108.016 108.5,110.5C 108.868,117.601 106.535,123.601 101.5,128.5C 95.8355,133.536 89.5021,137.203 82.5,139.5C 74.8333,139.5 67.1667,139.5 59.5,139.5C 50.3554,135.22 41.522,130.22 33,124.5C 32.6667,124.833 32.3333,125.167 32,125.5C 30.3171,123.486 28.3171,121.82 26,120.5C 25.6667,120.833 25.3333,121.167 25,121.5C 20.7541,118.625 16.2541,116.125 11.5,114C 10,112.5 8.5,111 7,109.5C 4.09262,99.8422 1.59262,90.5089 -0.5,81.5C -0.5,71.1667 -0.5,60.8333 -0.5,50.5C 2.99337,37.0394 9.99337,25.5394 20.5,16C 32.3723,8.43982 45.039,2.93982 58.5,-0.5 Z M 106.5,66.5 C 109.137,71.0787 110.804,76.0787 111.5,81.5C 110.178,81.67 109.011,81.3366 108,80.5C 106.226,77.2852 104.726,73.9518 103.5,70.5C 104.524,69.1482 105.524,67.8149 106.5,66.5 Z M 102.5,85.5 C 105.766,88.314 109.433,89.314 113.5,88.5C 114.968,90.7925 115.968,92.9591 116.5,95C 113,97.8333 109.5,100.667 106,103.5C 104.254,97.6059 103.088,91.6059 102.5,85.5 Z M 133.5,87.5 C 140.786,88.6224 147.786,88.7891 154.5,88C 155.833,89 155.833,90 154.5,91C 143.824,91.8084 133.158,92.6417 122.5,93.5C 122.579,92.0695 122.246,90.7362 121.5,89.5C 125.647,88.833 129.647,88.1663 133.5,87.5 Z M 153.5,97.5 C 154.139,98.0968 154.472,98.9302 154.5,100C 153.109,110.465 152.109,120.965 151.5,131.5C 146.804,131.329 142.137,130.829 137.5,130C 135.714,129.215 134.214,128.049 133,126.5C 130.548,117.851 127.714,109.351 124.5,101C 125.108,100.13 125.941,99.6301 127,99.5C 132.333,99.5 137.667,99.5 143,99.5C 146.654,98.9376 150.154,98.271 153.5,97.5 Z"/></g>
<g><path style="opacity:1" fill="#93d0e9" d="M 78.5,79.5 C 76.053,76.1013 72.7197,73.9346 68.5,73C 51.7204,70.6242 42.387,77.7909 40.5,94.5C 43.0639,112.795 53.3973,119.629 71.5,115C 75.2748,113.389 78.2748,110.889 80.5,107.5C 80.56,106.957 80.8933,106.624 81.5,106.5C 83.1667,107.333 84.8333,108.167 86.5,109C 85.944,109.383 85.6107,109.883 85.5,110.5C 82.2228,112.177 81.7228,114.51 84,117.5C 89.6827,119.486 92.016,117.486 91,111.5C 90.3292,110.748 89.4959,110.414 88.5,110.5C 92.6344,109.515 96.9677,109.182 101.5,109.5C 102.597,117.729 99.5975,123.895 92.5,128C 80.6076,134.1 68.2742,135.1 55.5,131C 50.503,127.166 45.1697,123.833 39.5,121C 40.4158,120.722 41.0825,120.222 41.5,119.5C 45.6417,115.896 44.975,113.229 39.5,111.5C 36.0131,112.469 34.6798,114.802 35.5,118.5C 26.0437,114.273 17.0437,109.273 8.5,103.5C 1.60393,85.7084 -0.229405,67.3751 3,48.5C 10.9221,24.2499 27.4221,9.41654 52.5,4C 93.1133,-4.2092 118.447,11.6241 128.5,51.5C 115.326,52.1273 102.659,54.9606 90.5,60C 86.6368,66.672 82.6368,73.172 78.5,79.5 Z"/></g>
<g><path style="opacity:1" fill="#fbfdfe" d="M 59.5,18.5 C 61.5,18.5 63.5,18.5 65.5,18.5C 65.6666,31.5043 65.4999,44.5043 65,57.5C 62.4082,58.9817 60.0749,58.6483 58,56.5C 55.8655,50.2337 53.1988,44.2337 50,38.5C 49.5004,45.1583 49.3337,51.825 49.5,58.5C 46.9208,58.9167 44.7542,58.25 43,56.5C 42.5001,44.5046 42.3335,32.5046 42.5,20.5C 44.674,20.0798 46.674,20.0798 48.5,20.5C 52.2015,27.0419 55.7015,33.7086 59,40.5C 59.4997,33.1742 59.6663,25.8409 59.5,18.5 Z"/></g>
<g><path style="opacity:0.996" fill="#227199" d="M 128.5,40.5 C 129.873,40.3433 131.207,40.51 132.5,41C 136.082,45.6595 138.415,50.8262 139.5,56.5C 137.303,58.306 134.97,58.6393 132.5,57.5C 130.692,51.937 129.359,46.2704 128.5,40.5 Z"/></g>
<g><path style="opacity:1" fill="#87c3dd" d="M 99.5,61.5 C 100.552,61.3505 101.552,61.5172 102.5,62C 100.259,63.7391 98.5922,65.9058 97.5,68.5C 92.0962,70.3247 90.7629,68.9914 93.5,64.5C 95.5939,63.4824 97.5939,62.4824 99.5,61.5 Z"/></g>
<g><path style="opacity:0.999" fill="#257097" d="M 78.5,79.5 C 77.5383,82.7568 76.0383,85.7568 74,88.5C 66.5644,79.6883 58.8978,79.355 51,87.5C 46.5386,95.7507 48.3719,102.251 56.5,107C 62.9173,108.65 68.4173,107.15 73,102.5C 76.1906,103.33 78.6906,104.997 80.5,107.5C 78.2748,110.889 75.2748,113.389 71.5,115C 53.3973,119.629 43.0639,112.795 40.5,94.5C 42.387,77.7909 51.7204,70.6242 68.5,73C 72.7197,73.9346 76.053,76.1013 78.5,79.5 Z"/></g>
<g><path style="opacity:1" fill="#8fcce6" d="M 96.5,74.5 C 96.0515,84.3383 97.0515,94.005 99.5,103.5C 94.4947,105.002 89.4947,104.668 84.5,102.5C 83.6143,101.675 83.281,100.675 83.5,99.5C 84.1611,97.866 84.4944,96.0326 84.5,94C 84.7001,91.1345 84.0334,88.6345 82.5,86.5C 83.3434,82.4784 85.0101,78.8117 87.5,75.5C 90.4281,74.5159 93.4281,74.1826 96.5,74.5 Z"/></g>
<g><path style="opacity:0.994" fill="#236c91" d="M 96.5,74.5 C 97.4959,74.4142 98.3292,74.7476 99,75.5C 99.065,84.8151 100.232,93.9818 102.5,103C 101.824,104.683 100.824,104.85 99.5,103.5C 97.0515,94.005 96.0515,84.3383 96.5,74.5 Z"/></g>
<g><path style="opacity:1" fill="#656565" d="M 58.5,87.5 C 64.7552,86.2607 68.4219,88.7607 69.5,95C 69.0113,99.4887 66.5113,101.989 62,102.5C 55.576,101.413 53.2426,97.7464 55,91.5C 55.6897,89.6498 56.8564,88.3164 58.5,87.5 Z"/></g>
<g><path style="opacity:0.998" fill="#266e94" d="M 82.5,86.5 C 84.0334,88.6345 84.7001,91.1345 84.5,94C 84.4944,96.0326 84.1611,97.866 83.5,99.5C 80.4974,100.691 77.8308,100.024 75.5,97.5C 77.1091,93.2601 79.4425,89.5935 82.5,86.5 Z"/></g>
<g><path style="opacity:0.996" fill="#296d91" d="M 8.5,103.5 C 17.0437,109.273 26.0437,114.273 35.5,118.5C 37.3792,119.341 39.3792,119.675 41.5,119.5C 41.0825,120.222 40.4158,120.722 39.5,121C 45.1697,123.833 50.503,127.166 55.5,131C 68.2742,135.1 80.6076,134.1 92.5,128C 99.5975,123.895 102.597,117.729 101.5,109.5C 104.488,109.155 105.821,110.488 105.5,113.5C 103.959,123.746 98.2921,130.58 88.5,134C 76.287,138.974 64.287,138.641 52.5,133C 38.9951,125.08 25.3284,117.413 11.5,110C 9.08073,108.491 8.08073,106.325 8.5,103.5 Z"/></g>
<g><path style="opacity:0.243" fill="#1b2c36" d="M 85.5,110.5 C 86.5,110.5 87.5,110.5 88.5,110.5C 89.4959,110.414 90.3292,110.748 91,111.5C 92.016,117.486 89.6827,119.486 84,117.5C 81.7228,114.51 82.2228,112.177 85.5,110.5 Z"/></g>
<g><path style="opacity:1" fill="#5b6164" d="M 86.5,112.5 C 88.0481,112.821 88.7148,113.821 88.5,115.5C 85.7524,115.598 85.0857,114.598 86.5,112.5 Z"/></g>
<g><path style="opacity:0.286" fill="#243743" d="M 41.5,119.5 C 39.3792,119.675 37.3792,119.341 35.5,118.5C 34.6798,114.802 36.0131,112.469 39.5,111.5C 44.975,113.229 45.6417,115.896 41.5,119.5 Z"/></g>
</svg>
